Another that is not my capture.

General
Complete name                            : C:MediaFilms And MoviesFilmsMannys OrphansMannys Orphans.avi
Format                                   : AVI
Format/Info                              : Audio Video Interleave
File size                                : 489 MiB
Duration                                 : 1h 31mn
Overall bit rate                         : 747 Kbps
Writing application                      : VirtualDubMod 1.5.4.1 (build 2178/release)
Writing library                          : VirtualDubMod build 2178/release

Video
ID                                       : 0
Format                                   : MPEG-4 Visual
Format profile                           : Advanced Simple@L5
Format settings, BVOP                    : 1
Format settings, QPel                    : No
Format settings, GMC                     : No warppoints
Format settings, Matrix                  : Custom
Codec ID                                 : XVID
Codec ID/Hint                            : XviD
Duration                                 : 1h 31mn
Bit rate                                 : 452 Kbps
Width                                    : 480 pixels
Height                                   : 368 pixels
Display aspect ratio                     : 4:3
Frame rate                               : 23.976 fps
Color space                              : YUV
Chroma subsampling                       : 4:2:0
Bit depth                                : 8 bits
Scan type                                : Progressive
Compression mode                         : Lossy
Bits/(Pixel*Frame)                       : 0.107
Stream size                              : 296 MiB (61%)
Writing library                          : XviD 1.1.2 (UTC 2006-11-01)

Audio
ID                                       : 1
Format                                   : AC-3
Format/Info                              : Audio Coding 3
Mode extension                           : CM (complete main)
Format settings, Endianness              : Big
Codec ID                                 : 2000
Duration                                 : 1h 31mn
Bit rate mode                            : Constant
Bit rate                                 : 256 Kbps
Channel(s)                               : 2 channels
Channel positions                        : Front: L R
Sampling rate                            : 48.0 KHz
Bit depth                                : 16 bits
Compression mode                         : Lossy
Delay relative to video                  : 20ms
Stream size                              : 168 MiB (34%)
Alignment                                : Split accross interleaves
Language                                 : English

